<mxfile host="app.diagrams.net" agent="Mozilla/5.0 (Windows NT 10.0; Win64; x64) AppleWebKit/537.36 (KHTML, like Gecko) Chrome/134.0.0.0 Safari/537.36" version="26.1.1">
  <diagram name="AWS EKS Architecture" id="rh-8kh5xCJhRo6gSsdiy">
    <mxGraphModel dx="3850" dy="2591" grid="1" gridSize="10" guides="1" tooltips="1" connect="1" arrows="1" fold="1" page="1" pageScale="1" pageWidth="850" pageHeight="1100" math="0" shadow="0">
      <root>
        <mxCell id="0" />
        <mxCell id="1" parent="0" />
        <mxCell id="cP68oc2lyPPfZi1bgTgm-41" value="" style="rounded=0;whiteSpace=wrap;html=1;movable=0;resizable=0;rotatable=0;deletable=0;editable=0;locked=1;connectable=0;" parent="1" vertex="1">
          <mxGeometry x="-128" y="316.49" width="1540" height="590" as="geometry" />
        </mxCell>
        <mxCell id="Vmdeu8I34hhlEpoaFnQa-3" value="" style="rounded=0;arcSize=10;dashed=0;fillColor=none;gradientColor=none;strokeWidth=2;movable=0;resizable=0;rotatable=0;deletable=0;editable=0;locked=1;connectable=0;" parent="1" vertex="1">
          <mxGeometry x="-198" y="-996.51" width="1730" height="1223" as="geometry" />
        </mxCell>
        <mxCell id="TutvbiO1VOZdHe7GHNOU-56" value="10.0.0.0/16" style="sketch=0;outlineConnect=0;gradientColor=none;html=1;whiteSpace=wrap;fontSize=12;fontStyle=0;shape=mxgraph.aws4.group;grIcon=mxgraph.aws4.group_vpc;strokeColor=#6BB300;fillColor=none;verticalAlign=top;align=left;spacingLeft=30;fontColor=#879196;dashed=0;movable=0;resizable=0;rotatable=0;deletable=0;editable=0;locked=1;connectable=0;" parent="1" vertex="1">
          <mxGeometry x="-108" y="-963.51" width="1540" height="1157" as="geometry" />
        </mxCell>
        <mxCell id="Vmdeu8I34hhlEpoaFnQa-18" value="" style="rounded=0;whiteSpace=wrap;html=1;movable=0;resizable=0;rotatable=0;deletable=0;editable=0;locked=1;connectable=0;" parent="1" vertex="1">
          <mxGeometry x="692" y="-906.51" width="620" height="1050" as="geometry" />
        </mxCell>
        <mxCell id="LVv6-rukdr9kL_Ci66FN-58" value="Availability Zone 1" style="fillColor=none;strokeColor=#147EBA;verticalAlign=top;fontStyle=0;fontColor=#147EBA;whiteSpace=wrap;html=1;rotation=-90;movable=0;resizable=0;rotatable=0;deletable=0;editable=0;locked=1;connectable=0;dashed=1;" parent="1" vertex="1">
          <mxGeometry x="431.03" y="-1330" width="388.72" height="1318.32" as="geometry" />
        </mxCell>
        <mxCell id="LVv6-rukdr9kL_Ci66FN-23" value="Private subnet 1&lt;br&gt;10.0.3.0/24" style="points=[[0,0],[0.25,0],[0.5,0],[0.75,0],[1,0],[1,0.25],[1,0.5],[1,0.75],[1,1],[0.75,1],[0.5,1],[0.25,1],[0,1],[0,0.75],[0,0.5],[0,0.25]];outlineConnect=0;gradientColor=none;html=1;whiteSpace=wrap;fontSize=12;fontStyle=0;container=1;pointerEvents=0;collapsible=0;recursiveResize=0;shape=mxgraph.aws4.group;grIcon=mxgraph.aws4.group_security_group;grStroke=0;strokeColor=#00A4A6;fillColor=#E6F6F7;verticalAlign=top;align=left;spacingLeft=30;fontColor=#147EBA;dashed=0;movable=0;resizable=0;rotatable=0;deletable=0;editable=0;locked=1;connectable=0;" parent="1" vertex="1">
          <mxGeometry x="802" y="-853.92" width="410" height="360" as="geometry" />
        </mxCell>
        <mxCell id="LVv6-rukdr9kL_Ci66FN-59" value="Availability Zone 2" style="fillColor=none;strokeColor=#147EBA;verticalAlign=top;fontStyle=0;fontColor=#147EBA;whiteSpace=wrap;html=1;rotation=-90;movable=0;resizable=0;rotatable=0;deletable=0;editable=0;locked=1;connectable=0;dashed=1;" parent="1" vertex="1">
          <mxGeometry x="421.69" y="-713.8299999999999" width="380.28" height="1283.97" as="geometry" />
        </mxCell>
        <mxCell id="LVv6-rukdr9kL_Ci66FN-38" value="Private subnet 2&lt;div&gt;10.0.4.0/24&lt;/div&gt;" style="points=[[0,0],[0.25,0],[0.5,0],[0.75,0],[1,0],[1,0.25],[1,0.5],[1,0.75],[1,1],[0.75,1],[0.5,1],[0.25,1],[0,1],[0,0.75],[0,0.5],[0,0.25]];outlineConnect=0;gradientColor=none;html=1;whiteSpace=wrap;fontSize=12;fontStyle=0;container=1;pointerEvents=0;collapsible=0;recursiveResize=0;shape=mxgraph.aws4.group;grIcon=mxgraph.aws4.group_security_group;grStroke=0;strokeColor=#00A4A6;fillColor=#E6F6F7;verticalAlign=top;align=left;spacingLeft=30;fontColor=#147EBA;dashed=0;movable=0;resizable=0;rotatable=0;deletable=0;editable=0;locked=1;connectable=0;" parent="1" vertex="1">
          <mxGeometry x="792" y="-252.01" width="420" height="360" as="geometry" />
        </mxCell>
        <mxCell id="LVv6-rukdr9kL_Ci66FN-55" value="Auto Scaling group" style="points=[[0,0],[0.25,0],[0.5,0],[0.75,0],[1,0],[1,0.25],[1,0.5],[1,0.75],[1,1],[0.75,1],[0.5,1],[0.25,1],[0,1],[0,0.75],[0,0.5],[0,0.25]];outlineConnect=0;gradientColor=none;html=1;whiteSpace=wrap;fontSize=12;fontStyle=0;container=1;pointerEvents=0;collapsible=0;recursiveResize=0;shape=mxgraph.aws4.groupCenter;grIcon=mxgraph.aws4.group_auto_scaling_group;grStroke=1;strokeColor=#D86613;fillColor=none;verticalAlign=top;align=center;fontColor=#D86613;spacingTop=25;movable=0;resizable=0;rotatable=0;deletable=0;editable=0;locked=1;connectable=0;" parent="LVv6-rukdr9kL_Ci66FN-38" vertex="1">
          <mxGeometry x="40" y="-580" width="370" height="930" as="geometry" />
        </mxCell>
        <mxCell id="LVv6-rukdr9kL_Ci66FN-56" value="" style="outlineConnect=0;dashed=0;verticalLabelPosition=bottom;verticalAlign=top;align=center;html=1;shape=mxgraph.aws3.auto_scaling;fillColor=#F58534;gradientColor=none;movable=0;resizable=0;rotatable=0;deletable=0;editable=0;locked=1;connectable=0;" parent="LVv6-rukdr9kL_Ci66FN-55" vertex="1">
          <mxGeometry x="168" y="422.01" width="62" height="58.13" as="geometry" />
        </mxCell>
        <mxCell id="jZCDp3kxoupZj0aG2XI8-8" style="edgeStyle=orthogonalEdgeStyle;rounded=0;orthogonalLoop=1;jettySize=auto;html=1;movable=0;resizable=0;rotatable=0;deletable=0;editable=0;locked=1;connectable=0;" parent="LVv6-rukdr9kL_Ci66FN-55" source="LVv6-rukdr9kL_Ci66FN-27" target="jZCDp3kxoupZj0aG2XI8-7" edge="1">
          <mxGeometry relative="1" as="geometry" />
        </mxCell>
        <mxCell id="LVv6-rukdr9kL_Ci66FN-27" value="Backend&lt;br&gt;(Python/Flask)" style="aspect=fixed;sketch=0;html=1;dashed=0;whitespace=wrap;verticalLabelPosition=bottom;verticalAlign=top;fillColor=#2875E2;strokeColor=#ffffff;points=[[0.005,0.63,0],[0.1,0.2,0],[0.9,0.2,0],[0.5,0,0],[0.995,0.63,0],[0.72,0.99,0],[0.5,1,0],[0.28,0.99,0]];shape=mxgraph.kubernetes.icon2;prIcon=node;movable=0;resizable=0;rotatable=0;deletable=0;editable=0;locked=1;connectable=0;" parent="LVv6-rukdr9kL_Ci66FN-55" vertex="1">
          <mxGeometry x="140.00000000000006" y="128.50000000000003" width="40.62" height="39" as="geometry" />
        </mxCell>
        <mxCell id="LVv6-rukdr9kL_Ci66FN-25" value="&lt;font color=&quot;#232f3e&quot;&gt;Frontend&lt;br&gt;(React)&lt;/font&gt;" style="aspect=fixed;sketch=0;html=1;dashed=0;whitespace=wrap;verticalLabelPosition=bottom;verticalAlign=top;fillColor=#2875E2;strokeColor=#ffffff;points=[[0.005,0.63,0],[0.1,0.2,0],[0.9,0.2,0],[0.5,0,0],[0.995,0.63,0],[0.72,0.99,0],[0.5,1,0],[0.28,0.99,0]];shape=mxgraph.kubernetes.icon2;prIcon=node;movable=0;resizable=0;rotatable=0;deletable=0;editable=0;locked=1;connectable=0;" parent="LVv6-rukdr9kL_Ci66FN-55" vertex="1">
          <mxGeometry x="30.000000000000057" y="133.75000000000003" width="40.62" height="39" as="geometry" />
        </mxCell>
        <mxCell id="jZCDp3kxoupZj0aG2XI8-12" style="edgeStyle=orthogonalEdgeStyle;rounded=0;orthogonalLoop=1;jettySize=auto;html=1;movable=0;resizable=0;rotatable=0;deletable=0;editable=0;locked=1;connectable=0;" parent="LVv6-rukdr9kL_Ci66FN-55" source="jZCDp3kxoupZj0aG2XI8-4" target="Sw0wEQEiZSazHrTpmJdk-6" edge="1">
          <mxGeometry relative="1" as="geometry" />
        </mxCell>
        <mxCell id="jZCDp3kxoupZj0aG2XI8-4" value="Backend&lt;br&gt;(Python/Flask)" style="aspect=fixed;sketch=0;html=1;dashed=0;whitespace=wrap;verticalLabelPosition=bottom;verticalAlign=top;fillColor=#2875E2;strokeColor=#ffffff;points=[[0.005,0.63,0],[0.1,0.2,0],[0.9,0.2,0],[0.5,0,0],[0.995,0.63,0],[0.72,0.99,0],[0.5,1,0],[0.28,0.99,0]];shape=mxgraph.kubernetes.icon2;prIcon=node;movable=0;resizable=0;rotatable=0;deletable=0;editable=0;locked=1;connectable=0;" parent="LVv6-rukdr9kL_Ci66FN-55" vertex="1">
          <mxGeometry x="140.00000000000006" y="738.5" width="40.62" height="39" as="geometry" />
        </mxCell>
        <mxCell id="jZCDp3kxoupZj0aG2XI8-5" value="&lt;font color=&quot;#232f3e&quot;&gt;Frontend&lt;br&gt;(React)&lt;/font&gt;" style="aspect=fixed;sketch=0;html=1;dashed=0;whitespace=wrap;verticalLabelPosition=bottom;verticalAlign=top;fillColor=#2875E2;strokeColor=#ffffff;points=[[0.005,0.63,0],[0.1,0.2,0],[0.9,0.2,0],[0.5,0,0],[0.995,0.63,0],[0.72,0.99,0],[0.5,1,0],[0.28,0.99,0]];shape=mxgraph.kubernetes.icon2;prIcon=node;movable=0;resizable=0;rotatable=0;deletable=0;editable=0;locked=1;connectable=0;" parent="LVv6-rukdr9kL_Ci66FN-55" vertex="1">
          <mxGeometry x="30.000000000000057" y="743.75" width="40.62" height="39" as="geometry" />
        </mxCell>
        <mxCell id="jZCDp3kxoupZj0aG2XI8-7" value="Amazon RDS&lt;br&gt;(PostgreSQL)&lt;br&gt;Primary" style="sketch=0;points=[[0,0,0],[0.25,0,0],[0.5,0,0],[0.75,0,0],[1,0,0],[0,1,0],[0.25,1,0],[0.5,1,0],[0.75,1,0],[1,1,0],[0,0.25,0],[0,0.5,0],[0,0.75,0],[1,0.25,0],[1,0.5,0],[1,0.75,0]];outlineConnect=0;fontColor=#232F3E;fillColor=#C925D1;strokeColor=#ffffff;dashed=0;verticalLabelPosition=bottom;verticalAlign=top;align=center;html=1;fontSize=12;fontStyle=0;aspect=fixed;shape=mxgraph.aws4.resourceIcon;resIcon=mxgraph.aws4.rds;movable=0;resizable=0;rotatable=0;deletable=0;editable=0;locked=1;connectable=0;" parent="LVv6-rukdr9kL_Ci66FN-55" vertex="1">
          <mxGeometry x="250" y="123.25" width="49.5" height="49.5" as="geometry" />
        </mxCell>
        <mxCell id="jZCDp3kxoupZj0aG2XI8-9" style="edgeStyle=orthogonalEdgeStyle;rounded=0;orthogonalLoop=1;jettySize=auto;html=1;entryX=0.005;entryY=0.63;entryDx=0;entryDy=0;entryPerimeter=0;movable=0;resizable=0;rotatable=0;deletable=0;editable=0;locked=1;connectable=0;" parent="LVv6-rukdr9kL_Ci66FN-55" source="LVv6-rukdr9kL_Ci66FN-25" target="LVv6-rukdr9kL_Ci66FN-27" edge="1">
          <mxGeometry relative="1" as="geometry" />
        </mxCell>
        <mxCell id="Sw0wEQEiZSazHrTpmJdk-6" value="Amazon RDS&lt;br&gt;(PostgreSQL)&lt;br&gt;Multi AZ StandBy" style="sketch=0;points=[[0,0,0],[0.25,0,0],[0.5,0,0],[0.75,0,0],[1,0,0],[0,1,0],[0.25,1,0],[0.5,1,0],[0.75,1,0],[1,1,0],[0,0.25,0],[0,0.5,0],[0,0.75,0],[1,0.25,0],[1,0.5,0],[1,0.75,0]];outlineConnect=0;fontColor=#232F3E;fillColor=#C925D1;strokeColor=#ffffff;dashed=0;verticalLabelPosition=bottom;verticalAlign=top;align=center;html=1;fontSize=12;fontStyle=0;aspect=fixed;shape=mxgraph.aws4.resourceIcon;resIcon=mxgraph.aws4.rds;movable=0;resizable=0;rotatable=0;deletable=0;editable=0;locked=1;connectable=0;" parent="LVv6-rukdr9kL_Ci66FN-55" vertex="1">
          <mxGeometry x="250" y="733.25" width="49.5" height="49.5" as="geometry" />
        </mxCell>
        <mxCell id="jZCDp3kxoupZj0aG2XI8-13" style="edgeStyle=orthogonalEdgeStyle;rounded=0;orthogonalLoop=1;jettySize=auto;html=1;entryX=0.005;entryY=0.63;entryDx=0;entryDy=0;entryPerimeter=0;movable=0;resizable=0;rotatable=0;deletable=0;editable=0;locked=1;connectable=0;" parent="LVv6-rukdr9kL_Ci66FN-55" source="jZCDp3kxoupZj0aG2XI8-5" target="jZCDp3kxoupZj0aG2XI8-4" edge="1">
          <mxGeometry relative="1" as="geometry" />
        </mxCell>
        <mxCell id="jZCDp3kxoupZj0aG2XI8-14" value="" style="endArrow=classic;html=1;rounded=0;exitX=0.5;exitY=1;exitDx=0;exitDy=0;exitPerimeter=0;entryX=0.5;entryY=0;entryDx=0;entryDy=0;entryPerimeter=0;movable=0;resizable=0;rotatable=0;deletable=0;editable=0;locked=1;connectable=0;" parent="LVv6-rukdr9kL_Ci66FN-55" source="jZCDp3kxoupZj0aG2XI8-7" target="Sw0wEQEiZSazHrTpmJdk-6" edge="1">
          <mxGeometry relative="1" as="geometry">
            <mxPoint x="30" y="658.5" as="sourcePoint" />
            <mxPoint x="130" y="658.5" as="targetPoint" />
          </mxGeometry>
        </mxCell>
        <mxCell id="jZCDp3kxoupZj0aG2XI8-15" value="Synchronous&lt;br&gt;Replication" style="edgeLabel;resizable=0;html=1;;align=center;verticalAlign=middle;movable=0;rotatable=0;deletable=0;editable=0;locked=1;connectable=0;" parent="jZCDp3kxoupZj0aG2XI8-14" connectable="0" vertex="1">
          <mxGeometry relative="1" as="geometry" />
        </mxCell>
        <mxCell id="LVv6-rukdr9kL_Ci66FN-43" value="" style="rounded=1;arcSize=10;strokeColor=#000000;fillColor=none;gradientColor=none;strokeWidth=1;movable=0;resizable=0;rotatable=0;deletable=0;editable=0;locked=1;connectable=0;dashed=1;" parent="LVv6-rukdr9kL_Ci66FN-55" vertex="1">
          <mxGeometry x="120" y="708.5" width="210" height="130" as="geometry" />
        </mxCell>
        <mxCell id="Vmdeu8I34hhlEpoaFnQa-7" value="" style="rounded=1;arcSize=10;dashed=1;strokeColor=#ff0000;fillColor=none;gradientColor=none;dashPattern=8 4;strokeWidth=2;movable=0;resizable=0;rotatable=0;deletable=0;editable=0;locked=1;connectable=0;" parent="LVv6-rukdr9kL_Ci66FN-55" vertex="1">
          <mxGeometry x="15" y="639.34" width="340" height="268.32" as="geometry" />
        </mxCell>
        <mxCell id="LVv6-rukdr9kL_Ci66FN-29" value="" style="rounded=1;arcSize=10;strokeColor=#000000;fillColor=none;gradientColor=none;strokeWidth=1;movable=0;resizable=0;rotatable=0;deletable=0;editable=0;locked=1;connectable=0;dashed=1;" parent="LVv6-rukdr9kL_Ci66FN-55" vertex="1">
          <mxGeometry x="110" y="108.5" width="210" height="120" as="geometry" />
        </mxCell>
        <mxCell id="Vmdeu8I34hhlEpoaFnQa-8" value="" style="rounded=1;arcSize=10;dashed=1;strokeColor=#ff0000;fillColor=none;gradientColor=none;dashPattern=8 4;strokeWidth=2;movable=0;resizable=0;rotatable=0;deletable=0;editable=0;locked=1;connectable=0;" parent="LVv6-rukdr9kL_Ci66FN-55" vertex="1">
          <mxGeometry x="18" y="50" width="306" height="258.5" as="geometry" />
        </mxCell>
        <mxCell id="Vmdeu8I34hhlEpoaFnQa-1" value="User" style="shape=actor;whiteSpace=wrap;html=1;movable=0;resizable=0;rotatable=0;deletable=0;editable=0;locked=1;connectable=0;" parent="1" vertex="1">
          <mxGeometry x="-548" y="-820" width="80" height="91" as="geometry" />
        </mxCell>
        <mxCell id="Vmdeu8I34hhlEpoaFnQa-2" value="Route 53" style="sketch=0;points=[[0,0,0],[0.25,0,0],[0.5,0,0],[0.75,0,0],[1,0,0],[0,1,0],[0.25,1,0],[0.5,1,0],[0.75,1,0],[1,1,0],[0,0.25,0],[0,0.5,0],[0,0.75,0],[1,0.25,0],[1,0.5,0],[1,0.75,0]];outlineConnect=0;fontColor=#232F3E;fillColor=#8C4FFF;strokeColor=#ffffff;dashed=0;verticalLabelPosition=bottom;verticalAlign=top;align=center;html=1;fontSize=12;fontStyle=0;aspect=fixed;shape=mxgraph.aws4.resourceIcon;resIcon=mxgraph.aws4.route_53;movable=0;resizable=0;rotatable=0;deletable=0;editable=0;locked=1;connectable=0;" parent="1" vertex="1">
          <mxGeometry x="-548" y="-420.51" width="78" height="78" as="geometry" />
        </mxCell>
        <mxCell id="Vmdeu8I34hhlEpoaFnQa-5" value="" style="outlineConnect=0;dashed=0;verticalLabelPosition=bottom;verticalAlign=top;align=center;html=1;shape=mxgraph.aws3.cloud_2;fillColor=#F58534;gradientColor=none;movable=0;resizable=0;rotatable=0;deletable=0;editable=0;locked=1;connectable=0;" parent="1" vertex="1">
          <mxGeometry x="542" y="-1033.51" width="75" height="75" as="geometry" />
        </mxCell>
        <mxCell id="Vmdeu8I34hhlEpoaFnQa-17" value="" style="sketch=0;points=[[0,0,0],[0.25,0,0],[0.5,0,0],[0.75,0,0],[1,0,0],[0,1,0],[0.25,1,0],[0.5,1,0],[0.75,1,0],[1,1,0],[0,0.25,0],[0,0.5,0],[0,0.75,0],[1,0.25,0],[1,0.5,0],[1,0.75,0]];outlineConnect=0;fontColor=#232F3E;fillColor=#ED7100;strokeColor=#ffffff;dashed=0;verticalLabelPosition=bottom;verticalAlign=top;align=center;html=1;fontSize=12;fontStyle=0;aspect=fixed;shape=mxgraph.aws4.resourceIcon;resIcon=mxgraph.aws4.eks;movable=0;resizable=0;rotatable=0;deletable=0;editable=0;locked=1;connectable=0;" parent="1" vertex="1">
          <mxGeometry x="712" y="-906.51" width="50" height="50" as="geometry" />
        </mxCell>
        <mxCell id="Vmdeu8I34hhlEpoaFnQa-19" value="Amazon EKS Cluster" style="text;html=1;align=center;verticalAlign=middle;resizable=0;points=[];autosize=1;strokeColor=none;fillColor=none;movable=0;rotatable=0;deletable=0;editable=0;locked=1;connectable=0;" parent="1" vertex="1">
          <mxGeometry x="762" y="-906.51" width="140" height="30" as="geometry" />
        </mxCell>
        <mxCell id="Vmdeu8I34hhlEpoaFnQa-23" style="edgeStyle=orthogonalEdgeStyle;rounded=0;orthogonalLoop=1;jettySize=auto;html=1;entryX=0.5;entryY=0;entryDx=0;entryDy=0;entryPerimeter=0;movable=0;resizable=0;rotatable=0;deletable=0;editable=0;locked=1;connectable=0;" parent="1" source="Vmdeu8I34hhlEpoaFnQa-1" target="Cl8BHOoKjIoHekQTflMq-28" edge="1">
          <mxGeometry relative="1" as="geometry" />
        </mxCell>
        <mxCell id="Cl8BHOoKjIoHekQTflMq-29" value="Authentication&lt;br&gt;Access Control" style="edgeLabel;html=1;align=center;verticalAlign=middle;resizable=0;points=[];movable=0;rotatable=0;deletable=0;editable=0;locked=1;connectable=0;" vertex="1" connectable="0" parent="Vmdeu8I34hhlEpoaFnQa-23">
          <mxGeometry x="-0.2308" y="-5" relative="1" as="geometry">
            <mxPoint as="offset" />
          </mxGeometry>
        </mxCell>
        <mxCell id="Cl8BHOoKjIoHekQTflMq-5" style="edgeStyle=orthogonalEdgeStyle;rounded=0;orthogonalLoop=1;jettySize=auto;html=1;movable=0;resizable=0;rotatable=0;deletable=0;editable=0;locked=1;connectable=0;" edge="1" parent="1" source="ue1RAT0j10rb1X5RN0Ns-1" target="Cl8BHOoKjIoHekQTflMq-4">
          <mxGeometry relative="1" as="geometry" />
        </mxCell>
        <mxCell id="ue1RAT0j10rb1X5RN0Ns-1" value="Application Load Balancer" style="outlineConnect=0;dashed=0;verticalLabelPosition=bottom;verticalAlign=top;align=center;html=1;shape=mxgraph.aws3.classic_load_balancer;fillColor=#F58534;gradientColor=none;movable=0;resizable=0;rotatable=0;deletable=0;editable=0;locked=1;connectable=0;" parent="1" vertex="1">
          <mxGeometry x="212" y="-415.19" width="60" height="68.68" as="geometry" />
        </mxCell>
        <mxCell id="-iypPXUo0KvEvjQ7XJEe-60" value="AWS WAF" style="sketch=0;points=[[0,0,0],[0.25,0,0],[0.5,0,0],[0.75,0,0],[1,0,0],[0,1,0],[0.25,1,0],[0.5,1,0],[0.75,1,0],[1,1,0],[0,0.25,0],[0,0.5,0],[0,0.75,0],[1,0.25,0],[1,0.5,0],[1,0.75,0]];outlineConnect=0;fontColor=#232F3E;fillColor=#DD344C;strokeColor=#ffffff;dashed=0;verticalLabelPosition=bottom;verticalAlign=top;align=center;html=1;fontSize=12;fontStyle=0;aspect=fixed;shape=mxgraph.aws4.resourceIcon;resIcon=mxgraph.aws4.waf;movable=0;resizable=0;rotatable=0;deletable=0;editable=0;locked=1;connectable=0;" parent="1" vertex="1">
          <mxGeometry x="-388" y="-419.85" width="78" height="78" as="geometry" />
        </mxCell>
        <mxCell id="-iypPXUo0KvEvjQ7XJEe-61" style="edgeStyle=orthogonalEdgeStyle;rounded=0;orthogonalLoop=1;jettySize=auto;html=1;entryX=0;entryY=0.5;entryDx=0;entryDy=0;entryPerimeter=0;movable=0;resizable=0;rotatable=0;deletable=0;editable=0;locked=1;connectable=0;" parent="1" source="Vmdeu8I34hhlEpoaFnQa-2" target="-iypPXUo0KvEvjQ7XJEe-60" edge="1">
          <mxGeometry relative="1" as="geometry" />
        </mxCell>
        <mxCell id="-iypPXUo0KvEvjQ7XJEe-62" style="edgeStyle=orthogonalEdgeStyle;rounded=0;orthogonalLoop=1;jettySize=auto;html=1;entryX=0;entryY=0.5;entryDx=0;entryDy=0;entryPerimeter=0;movable=0;resizable=0;rotatable=0;deletable=0;editable=0;locked=1;connectable=0;" parent="1" source="jZCDp3kxoupZj0aG2XI8-30" target="ue1RAT0j10rb1X5RN0Ns-1" edge="1">
          <mxGeometry relative="1" as="geometry" />
        </mxCell>
        <mxCell id="Cl8BHOoKjIoHekQTflMq-18" value="Accepts traffic from AWS WAF" style="edgeLabel;html=1;align=center;verticalAlign=middle;resizable=0;points=[];movable=0;rotatable=0;deletable=0;editable=0;locked=1;connectable=0;" vertex="1" connectable="0" parent="-iypPXUo0KvEvjQ7XJEe-62">
          <mxGeometry x="0.1094" y="2" relative="1" as="geometry">
            <mxPoint as="offset" />
          </mxGeometry>
        </mxCell>
        <mxCell id="jZCDp3kxoupZj0aG2XI8-20" value="Public subnet 1&lt;br&gt;10.0.1.0/24" style="points=[[0,0],[0.25,0],[0.5,0],[0.75,0],[1,0],[1,0.25],[1,0.5],[1,0.75],[1,1],[0.75,1],[0.5,1],[0.25,1],[0,1],[0,0.75],[0,0.5],[0,0.25]];outlineConnect=0;gradientColor=none;html=1;whiteSpace=wrap;fontSize=12;fontStyle=0;container=1;pointerEvents=0;collapsible=0;recursiveResize=0;shape=mxgraph.aws4.group;grIcon=mxgraph.aws4.group_security_group;grStroke=0;strokeColor=#7AA116;fillColor=#F2F6E8;verticalAlign=top;align=left;spacingLeft=30;fontColor=#248814;dashed=0;movable=0;resizable=0;rotatable=0;deletable=0;editable=0;locked=1;connectable=0;" parent="1" vertex="1">
          <mxGeometry x="42" y="-853.9200000000001" width="380" height="360.41" as="geometry" />
        </mxCell>
        <mxCell id="jZCDp3kxoupZj0aG2XI8-23" value="NAT Gateway 1" style="sketch=0;outlineConnect=0;fontColor=#232F3E;gradientColor=none;fillColor=#8C4FFF;strokeColor=none;dashed=0;verticalLabelPosition=bottom;verticalAlign=top;align=center;html=1;fontSize=12;fontStyle=0;aspect=fixed;pointerEvents=1;shape=mxgraph.aws4.nat_gateway;movable=0;resizable=0;rotatable=0;deletable=0;editable=0;locked=1;connectable=0;" parent="jZCDp3kxoupZj0aG2XI8-20" vertex="1">
          <mxGeometry x="152" y="136.16000000000003" width="78" height="78" as="geometry" />
        </mxCell>
        <mxCell id="jZCDp3kxoupZj0aG2XI8-22" value="Public subnet 2&lt;br&gt;10.0.2&lt;span style=&quot;background-color: transparent; color: light-dark(rgb(36, 136, 20), rgb(85, 171, 71));&quot;&gt;.0/24&lt;/span&gt;" style="points=[[0,0],[0.25,0],[0.5,0],[0.75,0],[1,0],[1,0.25],[1,0.5],[1,0.75],[1,1],[0.75,1],[0.5,1],[0.25,1],[0,1],[0,0.75],[0,0.5],[0,0.25]];outlineConnect=0;gradientColor=none;html=1;whiteSpace=wrap;fontSize=12;fontStyle=0;container=1;pointerEvents=0;collapsible=0;recursiveResize=0;shape=mxgraph.aws4.group;grIcon=mxgraph.aws4.group_security_group;grStroke=0;strokeColor=#7AA116;fillColor=#F2F6E8;verticalAlign=top;align=left;spacingLeft=30;fontColor=#248814;dashed=0;movable=0;resizable=0;rotatable=0;deletable=0;editable=0;locked=1;connectable=0;" parent="1" vertex="1">
          <mxGeometry x="42" y="-243.51" width="380" height="340" as="geometry" />
        </mxCell>
        <mxCell id="jZCDp3kxoupZj0aG2XI8-24" value="NAT Gateway 2" style="sketch=0;outlineConnect=0;fontColor=#232F3E;gradientColor=none;fillColor=#8C4FFF;strokeColor=none;dashed=0;verticalLabelPosition=bottom;verticalAlign=top;align=center;html=1;fontSize=12;fontStyle=0;aspect=fixed;pointerEvents=1;shape=mxgraph.aws4.nat_gateway;movable=0;resizable=0;rotatable=0;deletable=0;editable=0;locked=1;connectable=0;" parent="jZCDp3kxoupZj0aG2XI8-22" vertex="1">
          <mxGeometry x="151" y="145.99999999999994" width="78" height="78" as="geometry" />
        </mxCell>
        <mxCell id="jZCDp3kxoupZj0aG2XI8-26" style="edgeStyle=orthogonalEdgeStyle;rounded=0;orthogonalLoop=1;jettySize=auto;html=1;entryX=0.07;entryY=0.209;entryDx=0;entryDy=0;entryPerimeter=0;movable=0;resizable=0;rotatable=0;deletable=0;editable=0;locked=1;connectable=0;" parent="1" source="ue1RAT0j10rb1X5RN0Ns-1" target="LVv6-rukdr9kL_Ci66FN-58" edge="1">
          <mxGeometry relative="1" as="geometry" />
        </mxCell>
        <mxCell id="jZCDp3kxoupZj0aG2XI8-27" style="edgeStyle=orthogonalEdgeStyle;rounded=0;orthogonalLoop=1;jettySize=auto;html=1;entryX=0.951;entryY=0.212;entryDx=0;entryDy=0;entryPerimeter=0;movable=0;resizable=0;rotatable=0;deletable=0;editable=0;locked=1;connectable=0;" parent="1" source="ue1RAT0j10rb1X5RN0Ns-1" target="LVv6-rukdr9kL_Ci66FN-59" edge="1">
          <mxGeometry relative="1" as="geometry" />
        </mxCell>
        <mxCell id="jZCDp3kxoupZj0aG2XI8-28" value="" style="endArrow=classic;html=1;rounded=0;movable=0;resizable=0;rotatable=0;deletable=0;editable=0;locked=1;connectable=0;exitX=0;exitY=0.5;exitDx=0;exitDy=0;" parent="1" source="LVv6-rukdr9kL_Ci66FN-23" target="jZCDp3kxoupZj0aG2XI8-23" edge="1">
          <mxGeometry width="50" height="50" relative="1" as="geometry">
            <mxPoint x="800" y="-660" as="sourcePoint" />
            <mxPoint x="312" y="-423.51" as="targetPoint" />
          </mxGeometry>
        </mxCell>
        <mxCell id="Cl8BHOoKjIoHekQTflMq-2" value="Route Table: Private Subnet 1 → 0.0.0.0/0 → NAT Gateway 1" style="edgeLabel;html=1;align=center;verticalAlign=middle;resizable=0;points=[];movable=0;rotatable=0;deletable=0;editable=0;locked=1;connectable=0;" vertex="1" connectable="0" parent="jZCDp3kxoupZj0aG2XI8-28">
          <mxGeometry x="-0.0371" relative="1" as="geometry">
            <mxPoint as="offset" />
          </mxGeometry>
        </mxCell>
        <mxCell id="jZCDp3kxoupZj0aG2XI8-29" value="" style="endArrow=classic;html=1;rounded=0;movable=0;resizable=0;rotatable=0;deletable=0;editable=0;locked=1;connectable=0;" parent="1" source="LVv6-rukdr9kL_Ci66FN-38" target="jZCDp3kxoupZj0aG2XI8-24" edge="1">
          <mxGeometry width="50" height="50" relative="1" as="geometry">
            <mxPoint x="262" y="-373.51" as="sourcePoint" />
            <mxPoint x="312" y="-423.51" as="targetPoint" />
          </mxGeometry>
        </mxCell>
        <mxCell id="Cl8BHOoKjIoHekQTflMq-3" value="Route Table: Private Subnet 2 → 0.0.0.0/0 → NAT Gateway 2" style="edgeLabel;html=1;align=center;verticalAlign=middle;resizable=0;points=[];movable=0;rotatable=0;deletable=0;editable=0;locked=1;connectable=0;" vertex="1" connectable="0" parent="jZCDp3kxoupZj0aG2XI8-29">
          <mxGeometry x="0.185" relative="1" as="geometry">
            <mxPoint x="-1" as="offset" />
          </mxGeometry>
        </mxCell>
        <mxCell id="jZCDp3kxoupZj0aG2XI8-31" value="" style="edgeStyle=orthogonalEdgeStyle;rounded=0;orthogonalLoop=1;jettySize=auto;html=1;entryX=0;entryY=0.5;entryDx=0;entryDy=0;entryPerimeter=0;movable=0;resizable=0;rotatable=0;deletable=0;editable=0;locked=1;connectable=0;" parent="1" source="-iypPXUo0KvEvjQ7XJEe-60" target="jZCDp3kxoupZj0aG2XI8-30" edge="1">
          <mxGeometry relative="1" as="geometry">
            <mxPoint x="-360" y="-380.51" as="sourcePoint" />
            <mxPoint x="212" y="-380.51" as="targetPoint" />
          </mxGeometry>
        </mxCell>
        <mxCell id="jZCDp3kxoupZj0aG2XI8-30" value="Internet Gateway" style="sketch=0;outlineConnect=0;fontColor=#232F3E;gradientColor=none;fillColor=#8C4FFF;strokeColor=none;dashed=0;verticalLabelPosition=bottom;verticalAlign=top;align=center;html=1;fontSize=12;fontStyle=0;aspect=fixed;pointerEvents=1;shape=mxgraph.aws4.internet_gateway;movable=0;resizable=0;rotatable=0;deletable=0;editable=0;locked=1;connectable=0;" parent="1" vertex="1">
          <mxGeometry x="-146" y="-420.51" width="78" height="78" as="geometry" />
        </mxCell>
        <mxCell id="jZCDp3kxoupZj0aG2XI8-32" style="edgeStyle=orthogonalEdgeStyle;rounded=1;orthogonalLoop=1;jettySize=auto;html=1;movable=0;resizable=0;rotatable=0;deletable=0;editable=0;locked=1;connectable=0;curved=0;" parent="1" source="jZCDp3kxoupZj0aG2XI8-23" target="jZCDp3kxoupZj0aG2XI8-30" edge="1">
          <mxGeometry relative="1" as="geometry" />
        </mxCell>
        <mxCell id="jZCDp3kxoupZj0aG2XI8-33" style="edgeStyle=orthogonalEdgeStyle;rounded=1;orthogonalLoop=1;jettySize=auto;html=1;movable=0;resizable=0;rotatable=0;deletable=0;editable=0;locked=1;connectable=0;curved=0;" parent="1" source="jZCDp3kxoupZj0aG2XI8-24" target="jZCDp3kxoupZj0aG2XI8-30" edge="1">
          <mxGeometry relative="1" as="geometry" />
        </mxCell>
        <mxCell id="cP68oc2lyPPfZi1bgTgm-21" value="Developer" style="verticalLabelPosition=bottom;html=1;verticalAlign=top;align=center;strokeColor=none;fillColor=#00BEF2;shape=mxgraph.azure.user;movable=0;resizable=0;rotatable=0;deletable=0;editable=0;locked=1;connectable=0;" parent="1" vertex="1">
          <mxGeometry x="22" y="664.74" width="47.5" height="50" as="geometry" />
        </mxCell>
        <mxCell id="cP68oc2lyPPfZi1bgTgm-22" value="EKS" style="points=[[0,0],[0.25,0],[0.5,0],[0.75,0],[1,0],[1,0.25],[1,0.5],[1,0.75],[1,1],[0.75,1],[0.5,1],[0.25,1],[0,1],[0,0.75],[0,0.5],[0,0.25]];outlineConnect=0;gradientColor=none;html=1;whiteSpace=wrap;fontSize=12;fontStyle=0;container=1;pointerEvents=0;collapsible=0;recursiveResize=0;shape=mxgraph.aws4.group;grIcon=mxgraph.aws4.group_ec2_instance_contents;strokeColor=#D86613;fillColor=none;verticalAlign=top;align=left;spacingLeft=30;fontColor=#D86613;movable=0;resizable=0;rotatable=0;deletable=0;editable=0;locked=1;connectable=0;" parent="1" vertex="1">
          <mxGeometry x="1092" y="573.74" width="220" height="230" as="geometry" />
        </mxCell>
        <mxCell id="cP68oc2lyPPfZi1bgTgm-23" value="" style="sketch=0;points=[[0,0,0],[0.25,0,0],[0.5,0,0],[0.75,0,0],[1,0,0],[0,1,0],[0.25,1,0],[0.5,1,0],[0.75,1,0],[1,1,0],[0,0.25,0],[0,0.5,0],[0,0.75,0],[1,0.25,0],[1,0.5,0],[1,0.75,0]];outlineConnect=0;fontColor=#232F3E;fillColor=#ED7100;strokeColor=#ffffff;dashed=0;verticalLabelPosition=bottom;verticalAlign=top;align=center;html=1;fontSize=12;fontStyle=0;aspect=fixed;shape=mxgraph.aws4.resourceIcon;resIcon=mxgraph.aws4.ecs;movable=0;resizable=0;rotatable=0;deletable=0;editable=0;locked=1;connectable=0;" parent="cP68oc2lyPPfZi1bgTgm-22" vertex="1">
          <mxGeometry width="30" height="30" as="geometry" />
        </mxCell>
        <mxCell id="cP68oc2lyPPfZi1bgTgm-24" value="Frontend" style="sketch=0;points=[[0,0,0],[0.25,0,0],[0.5,0,0],[0.75,0,0],[1,0,0],[0,1,0],[0.25,1,0],[0.5,1,0],[0.75,1,0],[1,1,0],[0,0.25,0],[0,0.5,0],[0,0.75,0],[1,0.25,0],[1,0.5,0],[1,0.75,0]];outlineConnect=0;fontColor=#232F3E;fillColor=#ED7100;strokeColor=#ffffff;dashed=0;verticalLabelPosition=bottom;verticalAlign=top;align=center;html=1;fontSize=12;fontStyle=0;aspect=fixed;shape=mxgraph.aws4.resourceIcon;resIcon=mxgraph.aws4.ecs;movable=0;resizable=0;rotatable=0;deletable=0;editable=0;locked=1;connectable=0;" parent="cP68oc2lyPPfZi1bgTgm-22" vertex="1">
          <mxGeometry x="85" y="20" width="50" height="50" as="geometry" />
        </mxCell>
        <mxCell id="cP68oc2lyPPfZi1bgTgm-25" value="" style="aspect=fixed;sketch=0;html=1;dashed=0;whitespace=wrap;verticalLabelPosition=bottom;verticalAlign=top;fillColor=#2875E2;strokeColor=#ffffff;points=[[0.005,0.63,0],[0.1,0.2,0],[0.9,0.2,0],[0.5,0,0],[0.995,0.63,0],[0.72,0.99,0],[0.5,1,0],[0.28,0.99,0]];shape=mxgraph.kubernetes.icon2;prIcon=node;movable=0;resizable=0;rotatable=0;deletable=0;editable=0;locked=1;connectable=0;" parent="cP68oc2lyPPfZi1bgTgm-22" vertex="1">
          <mxGeometry x="89.69000000000005" y="25.5" width="40.62" height="39" as="geometry" />
        </mxCell>
        <mxCell id="cP68oc2lyPPfZi1bgTgm-26" value="Backend" style="sketch=0;points=[[0,0,0],[0.25,0,0],[0.5,0,0],[0.75,0,0],[1,0,0],[0,1,0],[0.25,1,0],[0.5,1,0],[0.75,1,0],[1,1,0],[0,0.25,0],[0,0.5,0],[0,0.75,0],[1,0.25,0],[1,0.5,0],[1,0.75,0]];outlineConnect=0;fontColor=#232F3E;fillColor=#ED7100;strokeColor=#ffffff;dashed=0;verticalLabelPosition=bottom;verticalAlign=top;align=center;html=1;fontSize=12;fontStyle=0;aspect=fixed;shape=mxgraph.aws4.resourceIcon;resIcon=mxgraph.aws4.ecs;movable=0;resizable=0;rotatable=0;deletable=0;editable=0;locked=1;connectable=0;" parent="cP68oc2lyPPfZi1bgTgm-22" vertex="1">
          <mxGeometry x="85" y="140" width="50" height="50" as="geometry" />
        </mxCell>
        <mxCell id="cP68oc2lyPPfZi1bgTgm-27" value="" style="aspect=fixed;sketch=0;html=1;dashed=0;whitespace=wrap;verticalLabelPosition=bottom;verticalAlign=top;fillColor=#2875E2;strokeColor=#ffffff;points=[[0.005,0.63,0],[0.1,0.2,0],[0.9,0.2,0],[0.5,0,0],[0.995,0.63,0],[0.72,0.99,0],[0.5,1,0],[0.28,0.99,0]];shape=mxgraph.kubernetes.icon2;prIcon=node;movable=0;resizable=0;rotatable=0;deletable=0;editable=0;locked=1;connectable=0;" parent="cP68oc2lyPPfZi1bgTgm-22" vertex="1">
          <mxGeometry x="89.69000000000005" y="145.5" width="40.62" height="39" as="geometry" />
        </mxCell>
        <mxCell id="cP68oc2lyPPfZi1bgTgm-28" style="edgeStyle=orthogonalEdgeStyle;rounded=0;orthogonalLoop=1;jettySize=auto;html=1;movable=0;resizable=0;rotatable=0;deletable=0;editable=0;locked=1;connectable=0;flowAnimation=1;" parent="1" source="cP68oc2lyPPfZi1bgTgm-29" target="cP68oc2lyPPfZi1bgTgm-34" edge="1">
          <mxGeometry relative="1" as="geometry" />
        </mxCell>
        <mxCell id="cP68oc2lyPPfZi1bgTgm-29" value="CI Pipeline" style="outlineConnect=0;dashed=0;verticalLabelPosition=bottom;verticalAlign=top;align=center;html=1;shape=mxgraph.aws3.codepipeline;fillColor=#759C3E;gradientColor=none;movable=0;resizable=0;rotatable=0;deletable=0;editable=0;locked=1;connectable=0;" parent="1" vertex="1">
          <mxGeometry x="702" y="662.24" width="47" height="55" as="geometry" />
        </mxCell>
        <mxCell id="cP68oc2lyPPfZi1bgTgm-30" style="edgeStyle=orthogonalEdgeStyle;rounded=0;orthogonalLoop=1;jettySize=auto;html=1;shape=link;flowAnimation=1;movable=0;resizable=0;rotatable=0;deletable=0;editable=0;locked=1;connectable=0;" parent="1" source="cP68oc2lyPPfZi1bgTgm-31" target="cP68oc2lyPPfZi1bgTgm-22" edge="1">
          <mxGeometry relative="1" as="geometry">
            <Array as="points">
              <mxPoint x="726" y="396.49" />
              <mxPoint x="1202" y="396.49" />
            </Array>
          </mxGeometry>
        </mxCell>
        <mxCell id="cP68oc2lyPPfZi1bgTgm-31" value="ECR" style="sketch=0;points=[[0,0,0],[0.25,0,0],[0.5,0,0],[0.75,0,0],[1,0,0],[0,1,0],[0.25,1,0],[0.5,1,0],[0.75,1,0],[1,1,0],[0,0.25,0],[0,0.5,0],[0,0.75,0],[1,0.25,0],[1,0.5,0],[1,0.75,0]];outlineConnect=0;fontColor=#232F3E;fillColor=#ED7100;strokeColor=#ffffff;dashed=0;verticalLabelPosition=bottom;verticalAlign=top;align=center;html=1;fontSize=12;fontStyle=0;aspect=fixed;shape=mxgraph.aws4.resourceIcon;resIcon=mxgraph.aws4.ecr;movable=0;resizable=0;rotatable=0;deletable=0;editable=0;locked=1;connectable=0;" parent="1" vertex="1">
          <mxGeometry x="698.5" y="416.49" width="54" height="54" as="geometry" />
        </mxCell>
        <mxCell id="cP68oc2lyPPfZi1bgTgm-32" value="IAM" style="sketch=0;points=[[0,0,0],[0.25,0,0],[0.5,0,0],[0.75,0,0],[1,0,0],[0,1,0],[0.25,1,0],[0.5,1,0],[0.75,1,0],[1,1,0],[0,0.25,0],[0,0.5,0],[0,0.75,0],[1,0.25,0],[1,0.5,0],[1,0.75,0]];outlineConnect=0;fontColor=#232F3E;fillColor=#DD344C;strokeColor=#ffffff;dashed=0;verticalLabelPosition=bottom;verticalAlign=top;align=center;html=1;fontSize=12;fontStyle=0;aspect=fixed;shape=mxgraph.aws4.resourceIcon;resIcon=mxgraph.aws4.identity_and_access_management;movable=0;resizable=0;rotatable=0;deletable=0;editable=0;locked=1;connectable=0;" parent="1" vertex="1">
          <mxGeometry x="242" y="660.74" width="58" height="58" as="geometry" />
        </mxCell>
        <mxCell id="cP68oc2lyPPfZi1bgTgm-33" style="edgeStyle=orthogonalEdgeStyle;rounded=0;orthogonalLoop=1;jettySize=auto;html=1;entryX=0;entryY=0.5;entryDx=0;entryDy=0;entryPerimeter=0;movable=0;resizable=0;rotatable=0;deletable=0;editable=0;locked=1;connectable=0;flowAnimation=0;" parent="1" source="cP68oc2lyPPfZi1bgTgm-21" target="cP68oc2lyPPfZi1bgTgm-32" edge="1">
          <mxGeometry relative="1" as="geometry" />
        </mxCell>
        <mxCell id="Cl8BHOoKjIoHekQTflMq-21" value="Authenticate" style="edgeLabel;html=1;align=center;verticalAlign=middle;resizable=0;points=[];movable=0;rotatable=0;deletable=0;editable=0;locked=1;connectable=0;" vertex="1" connectable="0" parent="cP68oc2lyPPfZi1bgTgm-33">
          <mxGeometry x="0.0307" relative="1" as="geometry">
            <mxPoint as="offset" />
          </mxGeometry>
        </mxCell>
        <mxCell id="cP68oc2lyPPfZi1bgTgm-34" value="CD Pipeline" style="outlineConnect=0;dashed=0;verticalLabelPosition=bottom;verticalAlign=top;align=center;html=1;shape=mxgraph.aws3.codebuild;fillColor=#759C3E;gradientColor=none;movable=0;resizable=0;rotatable=0;deletable=0;editable=0;locked=1;connectable=0;" parent="1" vertex="1">
          <mxGeometry x="880" y="658.74" width="52" height="60" as="geometry" />
        </mxCell>
        <mxCell id="cP68oc2lyPPfZi1bgTgm-35" value="" style="endArrow=classic;html=1;rounded=0;exitX=1;exitY=0.5;exitDx=0;exitDy=0;exitPerimeter=0;entryX=0;entryY=0.5;entryDx=0;entryDy=0;movable=0;resizable=0;rotatable=0;deletable=0;editable=0;locked=1;connectable=0;flowAnimation=1;" parent="1" source="cP68oc2lyPPfZi1bgTgm-34" target="cP68oc2lyPPfZi1bgTgm-22" edge="1">
          <mxGeometry width="50" height="50" relative="1" as="geometry">
            <mxPoint x="1112" y="926.49" as="sourcePoint" />
            <mxPoint x="1162" y="876.49" as="targetPoint" />
          </mxGeometry>
        </mxCell>
        <mxCell id="Cl8BHOoKjIoHekQTflMq-20" value="Helm" style="edgeLabel;html=1;align=center;verticalAlign=middle;resizable=0;points=[];movable=0;rotatable=0;deletable=0;editable=0;locked=1;connectable=0;" vertex="1" connectable="0" parent="cP68oc2lyPPfZi1bgTgm-35">
          <mxGeometry x="0.0407" y="1" relative="1" as="geometry">
            <mxPoint as="offset" />
          </mxGeometry>
        </mxCell>
        <mxCell id="cP68oc2lyPPfZi1bgTgm-36" style="edgeStyle=orthogonalEdgeStyle;rounded=0;orthogonalLoop=1;jettySize=auto;html=1;exitX=1;exitY=0.5;exitDx=0;exitDy=0;exitPerimeter=0;movable=0;resizable=0;rotatable=0;deletable=0;editable=0;locked=1;connectable=0;flowAnimation=1;" parent="1" source="cP68oc2lyPPfZi1bgTgm-32" target="cP68oc2lyPPfZi1bgTgm-40" edge="1">
          <mxGeometry relative="1" as="geometry">
            <mxPoint x="494.9749999999999" y="689.74" as="targetPoint" />
            <Array as="points">
              <mxPoint x="390" y="690" />
              <mxPoint x="390" y="690" />
            </Array>
          </mxGeometry>
        </mxCell>
        <mxCell id="Cl8BHOoKjIoHekQTflMq-22" value="Push the code" style="edgeLabel;html=1;align=center;verticalAlign=middle;resizable=0;points=[];movable=0;rotatable=0;deletable=0;editable=0;locked=1;connectable=0;" vertex="1" connectable="0" parent="cP68oc2lyPPfZi1bgTgm-36">
          <mxGeometry x="-0.0725" y="1" relative="1" as="geometry">
            <mxPoint y="1" as="offset" />
          </mxGeometry>
        </mxCell>
        <mxCell id="cP68oc2lyPPfZi1bgTgm-37" style="edgeStyle=orthogonalEdgeStyle;rounded=0;orthogonalLoop=1;jettySize=auto;html=1;entryX=0;entryY=0.5;entryDx=0;entryDy=0;entryPerimeter=0;movable=0;resizable=0;rotatable=0;deletable=0;editable=0;locked=1;connectable=0;flowAnimation=1;" parent="1" source="cP68oc2lyPPfZi1bgTgm-40" target="cP68oc2lyPPfZi1bgTgm-29" edge="1">
          <mxGeometry relative="1" as="geometry">
            <mxPoint x="534.5" y="689.74" as="sourcePoint" />
          </mxGeometry>
        </mxCell>
        <mxCell id="Cl8BHOoKjIoHekQTflMq-24" value="Trigger" style="edgeLabel;html=1;align=center;verticalAlign=middle;resizable=0;points=[];movable=0;rotatable=0;deletable=0;editable=0;locked=1;connectable=0;" vertex="1" connectable="0" parent="cP68oc2lyPPfZi1bgTgm-37">
          <mxGeometry x="-0.048" y="1" relative="1" as="geometry">
            <mxPoint x="2" y="1" as="offset" />
          </mxGeometry>
        </mxCell>
        <mxCell id="cP68oc2lyPPfZi1bgTgm-38" style="edgeStyle=orthogonalEdgeStyle;rounded=0;orthogonalLoop=1;jettySize=auto;html=1;entryX=0.5;entryY=0;entryDx=0;entryDy=0;entryPerimeter=0;movable=0;resizable=0;rotatable=0;deletable=0;editable=0;locked=1;connectable=0;flowAnimation=1;" parent="1" source="cP68oc2lyPPfZi1bgTgm-31" target="cP68oc2lyPPfZi1bgTgm-34" edge="1">
          <mxGeometry relative="1" as="geometry" />
        </mxCell>
        <mxCell id="Cl8BHOoKjIoHekQTflMq-27" value="Pull image" style="edgeLabel;html=1;align=center;verticalAlign=middle;resizable=0;points=[];movable=0;rotatable=0;deletable=0;editable=0;locked=1;connectable=0;" vertex="1" connectable="0" parent="cP68oc2lyPPfZi1bgTgm-38">
          <mxGeometry x="0.5035" y="-1" relative="1" as="geometry">
            <mxPoint x="1" y="3" as="offset" />
          </mxGeometry>
        </mxCell>
        <mxCell id="cP68oc2lyPPfZi1bgTgm-40" value="GitHub" style="dashed=0;outlineConnect=0;html=1;align=center;labelPosition=center;verticalLabelPosition=bottom;verticalAlign=top;shape=mxgraph.weblogos.github;movable=0;resizable=0;rotatable=0;deletable=0;editable=0;locked=1;connectable=0;" parent="1" vertex="1">
          <mxGeometry x="482" y="656.74" width="70" height="66" as="geometry" />
        </mxCell>
        <mxCell id="cP68oc2lyPPfZi1bgTgm-42" value="CI/CD Pipelines" style="text;html=1;align=center;verticalAlign=middle;whiteSpace=wrap;rounded=0;fontSize=31;fontStyle=1;movable=0;resizable=0;rotatable=0;deletable=0;editable=0;locked=1;connectable=0;" parent="1" vertex="1">
          <mxGeometry x="-47" y="346.49" width="249" height="70" as="geometry" />
        </mxCell>
        <mxCell id="Cl8BHOoKjIoHekQTflMq-1" value="" style="endArrow=classic;html=1;rounded=0;exitX=0.5;exitY=0;exitDx=0;exitDy=0;exitPerimeter=0;entryX=0.5;entryY=1;entryDx=0;entryDy=0;entryPerimeter=0;flowAnimation=1;movable=0;resizable=0;rotatable=0;deletable=0;editable=0;locked=1;connectable=0;" edge="1" parent="1" source="cP68oc2lyPPfZi1bgTgm-29" target="cP68oc2lyPPfZi1bgTgm-31">
          <mxGeometry width="50" height="50" relative="1" as="geometry">
            <mxPoint x="400" y="500" as="sourcePoint" />
            <mxPoint x="450" y="450" as="targetPoint" />
          </mxGeometry>
        </mxCell>
        <mxCell id="Cl8BHOoKjIoHekQTflMq-19" value="Push Image" style="edgeLabel;html=1;align=center;verticalAlign=middle;resizable=0;points=[];movable=0;rotatable=0;deletable=0;editable=0;locked=1;connectable=0;" vertex="1" connectable="0" parent="Cl8BHOoKjIoHekQTflMq-1">
          <mxGeometry x="-0.0296" y="2" relative="1" as="geometry">
            <mxPoint as="offset" />
          </mxGeometry>
        </mxCell>
        <mxCell id="Cl8BHOoKjIoHekQTflMq-4" value="AWS ALB &lt;br&gt;Ingress Controller" style="sketch=0;outlineConnect=0;fontColor=#232F3E;gradientColor=none;fillColor=#8C4FFF;strokeColor=none;dashed=0;verticalLabelPosition=bottom;verticalAlign=top;align=center;html=1;fontSize=12;fontStyle=0;aspect=fixed;pointerEvents=1;shape=mxgraph.aws4.network_load_balancer;movable=0;resizable=0;rotatable=0;deletable=0;editable=0;locked=1;connectable=0;" vertex="1" parent="1">
          <mxGeometry x="728" y="-413.51000000000005" width="64" height="64" as="geometry" />
        </mxCell>
        <mxCell id="Cl8BHOoKjIoHekQTflMq-6" style="edgeStyle=orthogonalEdgeStyle;rounded=1;orthogonalLoop=1;jettySize=auto;html=1;entryX=0.458;entryY=0.472;entryDx=0;entryDy=0;entryPerimeter=0;curved=0;movable=0;resizable=0;rotatable=0;deletable=0;editable=0;locked=1;connectable=0;" edge="1" parent="1" source="Cl8BHOoKjIoHekQTflMq-4" target="Vmdeu8I34hhlEpoaFnQa-8">
          <mxGeometry relative="1" as="geometry" />
        </mxCell>
        <mxCell id="Cl8BHOoKjIoHekQTflMq-14" value="Routes &lt;code data-end=&quot;1684&quot; data-start=&quot;1676&quot;&gt;/api/*&lt;/code&gt; traffic" style="edgeLabel;html=1;align=center;verticalAlign=middle;resizable=0;points=[];movable=0;rotatable=0;deletable=0;editable=0;locked=1;connectable=0;" vertex="1" connectable="0" parent="Cl8BHOoKjIoHekQTflMq-6">
          <mxGeometry x="0.1739" relative="1" as="geometry">
            <mxPoint as="offset" />
          </mxGeometry>
        </mxCell>
        <mxCell id="Cl8BHOoKjIoHekQTflMq-7" style="edgeStyle=orthogonalEdgeStyle;rounded=1;orthogonalLoop=1;jettySize=auto;html=1;curved=0;movable=0;resizable=0;rotatable=0;deletable=0;editable=0;locked=1;connectable=0;" edge="1" parent="1" source="Cl8BHOoKjIoHekQTflMq-4">
          <mxGeometry relative="1" as="geometry">
            <mxPoint x="990" y="-90" as="targetPoint" />
          </mxGeometry>
        </mxCell>
        <mxCell id="Cl8BHOoKjIoHekQTflMq-15" value="Routes &lt;code data-end=&quot;1684&quot; data-start=&quot;1676&quot;&gt;/api/*&lt;/code&gt; traffic" style="edgeLabel;html=1;align=center;verticalAlign=middle;resizable=0;points=[];movable=0;rotatable=0;deletable=0;editable=0;locked=1;connectable=0;" vertex="1" connectable="0" parent="Cl8BHOoKjIoHekQTflMq-7">
          <mxGeometry x="0.1204" relative="1" as="geometry">
            <mxPoint as="offset" />
          </mxGeometry>
        </mxCell>
        <mxCell id="Cl8BHOoKjIoHekQTflMq-8" style="edgeStyle=orthogonalEdgeStyle;rounded=1;orthogonalLoop=1;jettySize=auto;html=1;entryX=0.098;entryY=0.472;entryDx=0;entryDy=0;entryPerimeter=0;curved=0;movable=0;resizable=0;rotatable=0;deletable=0;editable=0;locked=1;connectable=0;" edge="1" parent="1" source="Cl8BHOoKjIoHekQTflMq-4" target="Vmdeu8I34hhlEpoaFnQa-8">
          <mxGeometry relative="1" as="geometry">
            <Array as="points">
              <mxPoint x="880" y="-400" />
            </Array>
          </mxGeometry>
        </mxCell>
        <mxCell id="Cl8BHOoKjIoHekQTflMq-10" value="Routes &lt;code data-end=&quot;1610&quot; data-start=&quot;1607&quot;&gt;/&lt;/code&gt; traffic" style="edgeLabel;html=1;align=center;verticalAlign=middle;resizable=0;points=[];movable=0;rotatable=0;deletable=0;editable=0;locked=1;connectable=0;" vertex="1" connectable="0" parent="Cl8BHOoKjIoHekQTflMq-8">
          <mxGeometry x="-0.1242" y="-3" relative="1" as="geometry">
            <mxPoint y="1" as="offset" />
          </mxGeometry>
        </mxCell>
        <mxCell id="Cl8BHOoKjIoHekQTflMq-9" style="edgeStyle=orthogonalEdgeStyle;rounded=1;orthogonalLoop=1;jettySize=auto;html=1;entryX=0.097;entryY=0.383;entryDx=0;entryDy=0;entryPerimeter=0;curved=0;movable=0;resizable=0;rotatable=0;deletable=0;editable=0;locked=1;connectable=0;" edge="1" parent="1" source="Cl8BHOoKjIoHekQTflMq-4" target="Vmdeu8I34hhlEpoaFnQa-7">
          <mxGeometry relative="1" as="geometry">
            <Array as="points">
              <mxPoint x="880" y="-370" />
            </Array>
          </mxGeometry>
        </mxCell>
        <mxCell id="Cl8BHOoKjIoHekQTflMq-17" value="Routes &lt;code data-end=&quot;1610&quot; data-start=&quot;1607&quot;&gt;/&lt;/code&gt; traffic" style="edgeLabel;html=1;align=center;verticalAlign=middle;resizable=0;points=[];movable=0;rotatable=0;deletable=0;editable=0;locked=1;connectable=0;" vertex="1" connectable="0" parent="Cl8BHOoKjIoHekQTflMq-9">
          <mxGeometry x="-0.1778" y="2" relative="1" as="geometry">
            <mxPoint as="offset" />
          </mxGeometry>
        </mxCell>
        <mxCell id="Cl8BHOoKjIoHekQTflMq-28" value="AWS IAM" style="sketch=0;points=[[0,0,0],[0.25,0,0],[0.5,0,0],[0.75,0,0],[1,0,0],[0,1,0],[0.25,1,0],[0.5,1,0],[0.75,1,0],[1,1,0],[0,0.25,0],[0,0.5,0],[0,0.75,0],[1,0.25,0],[1,0.5,0],[1,0.75,0]];outlineConnect=0;fontColor=#232F3E;fillColor=#DD344C;strokeColor=#ffffff;dashed=0;verticalLabelPosition=bottom;verticalAlign=top;align=center;html=1;fontSize=12;fontStyle=0;aspect=fixed;shape=mxgraph.aws4.resourceIcon;resIcon=mxgraph.aws4.identity_and_access_management;movable=0;resizable=0;rotatable=0;deletable=0;editable=0;locked=1;connectable=0;" vertex="1" parent="1">
          <mxGeometry x="-548" y="-600" width="78" height="78" as="geometry" />
        </mxCell>
        <mxCell id="Cl8BHOoKjIoHekQTflMq-30" style="edgeStyle=orthogonalEdgeStyle;rounded=0;orthogonalLoop=1;jettySize=auto;html=1;entryX=0.5;entryY=0;entryDx=0;entryDy=0;entryPerimeter=0;movable=0;resizable=0;rotatable=0;deletable=0;editable=0;locked=1;connectable=0;" edge="1" parent="1" source="Cl8BHOoKjIoHekQTflMq-28" target="Vmdeu8I34hhlEpoaFnQa-2">
          <mxGeometry relative="1" as="geometry" />
        </mxCell>
        <mxCell id="Cl8BHOoKjIoHekQTflMq-31" style="edgeStyle=orthogonalEdgeStyle;rounded=1;orthogonalLoop=1;jettySize=auto;html=1;entryX=0.5;entryY=0;entryDx=0;entryDy=0;entryPerimeter=0;curved=0;dashed=1;movable=0;resizable=0;rotatable=0;deletable=0;editable=0;locked=1;connectable=0;" edge="1" parent="1" source="Cl8BHOoKjIoHekQTflMq-28" target="-iypPXUo0KvEvjQ7XJEe-60">
          <mxGeometry relative="1" as="geometry" />
        </mxCell>
        <mxCell id="Cl8BHOoKjIoHekQTflMq-32" value="access control for&lt;div&gt;security policies&lt;/div&gt;" style="edgeLabel;html=1;align=center;verticalAlign=middle;resizable=0;points=[];movable=0;rotatable=0;deletable=0;editable=0;locked=1;connectable=0;" vertex="1" connectable="0" parent="Cl8BHOoKjIoHekQTflMq-31">
          <mxGeometry x="0.1379" y="-2" relative="1" as="geometry">
            <mxPoint x="2" y="23" as="offset" />
          </mxGeometry>
        </mxCell>
        <mxCell id="Cl8BHOoKjIoHekQTflMq-33" style="edgeStyle=orthogonalEdgeStyle;rounded=1;orthogonalLoop=1;jettySize=auto;html=1;entryX=0.5;entryY=1;entryDx=0;entryDy=0;entryPerimeter=0;curved=0;flowAnimation=1;movable=0;resizable=0;rotatable=0;deletable=0;editable=0;locked=1;connectable=0;" edge="1" parent="1" source="cP68oc2lyPPfZi1bgTgm-40" target="cP68oc2lyPPfZi1bgTgm-34">
          <mxGeometry relative="1" as="geometry">
            <Array as="points">
              <mxPoint x="517" y="770" />
              <mxPoint x="906" y="770" />
            </Array>
          </mxGeometry>
        </mxCell>
        <mxCell id="Cl8BHOoKjIoHekQTflMq-35" value="K8s Manifest" style="edgeLabel;html=1;align=center;verticalAlign=middle;resizable=0;points=[];movable=0;rotatable=0;deletable=0;editable=0;locked=1;connectable=0;" vertex="1" connectable="0" parent="Cl8BHOoKjIoHekQTflMq-33">
          <mxGeometry x="0.0349" relative="1" as="geometry">
            <mxPoint x="-1" as="offset" />
          </mxGeometry>
        </mxCell>
      </root>
    </mxGraphModel>
  </diagram>
</mxfile>
